<svg xmlns="http://www.w3.org/2000/svg" viewBox="0 0 30 35" width="30" height="35">
  <defs>
    <radialGradient id="potG" cx="50%" cy="40%">
      <stop offset="0%" style="stop-color:#D4734A"/>
      <stop offset="100%" style="stop-color:#C2410C"/>
    </radialGradient>
  </defs>
  <!-- Shadow -->
  <ellipse cx="15" cy="33" rx="9" ry="2" fill="#00000018"/>
  <!-- Terracotta pot -->
  <path d="M 7 18 L 8 31 Q 15 33 22 31 L 23 18 Z" fill="url(#potG)" stroke="#9A3412" stroke-width="0.8"/>
  <rect x="6" y="16" width="18" height="3" rx="1" fill="#D4734A" stroke="#9A3412" stroke-width="0.5"/>
  <!-- Soil -->
  <ellipse cx="15" cy="17" rx="8" ry="3" fill="#5C3D1E"/>
  <!-- Succulent leaves -->
  <g fill="#4ADE80" stroke="#22C55E" stroke-width="0.5">
    <ellipse cx="15" cy="10" rx="4" ry="7"/>
    <ellipse cx="9" cy="14" rx="5" ry="3.5" transform="rotate(-20 9 14)"/>
    <ellipse cx="21" cy="14" rx="5" ry="3.5" transform="rotate(20 21 14)"/>
    <ellipse cx="11" cy="8" rx="4" ry="3" transform="rotate(-30 11 8)"/>
    <ellipse cx="19" cy="8" rx="4" ry="3" transform="rotate(30 19 8)"/>
  </g>
  <!-- Center rosette -->
  <circle cx="15" cy="12" r="2.5" fill="#86EFAC" stroke="#4ADE80" stroke-width="0.3"/>
</svg>