<svg xmlns="http://www.w3.org/2000/svg" viewBox="0 0 180 90" width="180" height="90">
  <!-- Double Door / French Door - Architectural Floor Plan Symbol -->
  <defs>
    <linearGradient id="frenchDoorWood" x1="0%" y1="0%" x2="100%" y2="0%">
      <stop offset="0%" style="stop-color:#8B4513"/>
      <stop offset="50%" style="stop-color:#A0522D"/>
      <stop offset="100%" style="stop-color:#8B4513"/>
    </linearGradient>
  </defs>
  <!-- Wall opening -->
  <rect x="0" y="0" width="180" height="10" fill="#D4A574"/>
  <!-- Door frame -->
  <rect x="5" y="2" width="170" height="6" fill="#5D3A1A"/>
  
  <!-- Left door panel -->
  <rect x="8" y="10" width="6" height="70" fill="url(#frenchDoorWood)" stroke="#4A3728" stroke-width="1"/>
  <!-- Left glass panels -->
  <rect x="9" y="15" width="4" height="18" fill="#DBEAFE" stroke="#6B7280" stroke-width="0.5"/>
  <rect x="9" y="38" width="4" height="18" fill="#DBEAFE" stroke="#6B7280" stroke-width="0.5"/>
  <rect x="9" y="61" width="4" height="15" fill="#DBEAFE" stroke="#6B7280" stroke-width="0.5"/>
  
  <!-- Right door panel -->
  <rect x="166" y="10" width="6" height="70" fill="url(#frenchDoorWood)" stroke="#4A3728" stroke-width="1"/>
  <!-- Right glass panels -->
  <rect x="167" y="15" width="4" height="18" fill="#DBEAFE" stroke="#6B7280" stroke-width="0.5"/>
  <rect x="167" y="38" width="4" height="18" fill="#DBEAFE" stroke="#6B7280" stroke-width="0.5"/>
  <rect x="167" y="61" width="4" height="15" fill="#DBEAFE" stroke="#6B7280" stroke-width="0.5"/>
  
  <!-- Left swing arc -->
  <path d="M 14 10 A 70 70 0 0 1 84 80" fill="none" stroke="#374151" stroke-width="1.5" stroke-dasharray="5,3"/>
  <!-- Right swing arc -->
  <path d="M 166 10 A 70 70 0 0 0 96 80" fill="none" stroke="#374151" stroke-width="1.5" stroke-dasharray="5,3"/>
  
  <!-- Open positions -->
  <rect x="14" y="10" width="70" height="5" fill="#A0522D" opacity="0.2"/>
  <rect x="96" y="10" width="70" height="5" fill="#A0522D" opacity="0.2"/>
  
  <!-- Hinges -->
  <circle cx="11" cy="12" r="3.5" fill="#374151"/>
  <circle cx="169" cy="12" r="3.5" fill="#374151"/>
  
  <!-- Handles -->
  <circle cx="11" cy="65" r="2.5" fill="#D4AF37"/>
  <circle cx="169" cy="65" r="2.5" fill="#D4AF37"/>
</svg>